<svg id="Layer_1" data-name="Layer 1" xmlns="http://www.w3.org/2000/svg" viewBox="0 0 180.88 208.35"><defs><style>.cls-1{fill:#ed1c24;}</style></defs><path class="cls-1" d="M243.89,197.5c37.18,2.8,89.44,6.65,89.34,56.44,0,56.75-43.63,70.19-90.44,70.19s-85.48-8.57-90.44-70.19H206.8c5.95,15.37,19.73,19.36,36,19.36s36-4,36-19.36c0-8.71-16.16-10-37.09-11.52-37.18-2.81-89.44-6.65-89.35-56.3,0-56.74,43.64-70.34,90.44-70.34,46.71.45,85.49,8.28,90.44,70.34H278.79c-6-15.66-19.73-19.36-36-19.36s-36,3.55-36,19.36C206.8,194.84,223,196,243.89,197.5Z" transform="translate(-152.35 -115.78)"/></svg>